<svg xmlns="http://www.w3.org/2000/svg"><symbol id="velociraptor" viewBox="0 0 256 256"><path d="M128 0a128 128 0 1 0 128 128A128 128 0 0 0 128 0zm110.7 116.8a29.4 29.4 0 0 1-4.2 0h-3.2c-3.1 0-6.2-.2-9.2-.5l-9.2-1-9.1-.9c-3.1-.3-6.2-.5-9.3-.5a130 130 0 0 0-16.4 1 76.7 76.7 0 0 0-15.9 3.7l-30.8 11.1a2.7 2.7 0 0 0-1.2 1.6 18.7 18.7 0 0 0-.8 2.8l-.6 2.8a8.1 8.1 0 0 1-.6 2 2.7 2.7 0 0 0 1.3 1.3l2.5 1.2 2.9 1.2 2.8 1.4a12.9 12.9 0 0 1 2.1 1.9 4.1 4.1 0 0 1 .8 2.5 1.7 1.7 0 0 1-.5 1.2l-1.2.9-1.6.7-1.6.8a6.9 6.9 0 0 0-1.3 1.1 2.4 2.4 0 0 0-.4 1.5 3.5 3.5 0 0 0 .8 2.6 5.8 5.8 0 0 0 1.9 1.5l2.4 1.4a6.8 6.8 0 0 1 2.1 1.7 14.1 14.1 0 0 1 2.1 3.5 23.2 23.2 0 0 1 1.3 3.7 22.6 22.6 0 0 1 .7 3.9c.2 1.3.1 2.6.3 3.9l1.3 1.4v7.2h.9l1 .2 1 .2.6.2v.9a3.4 3.4 0 0 1-.1.9 6.1 6.1 0 0 1-.3 1.3 3.1 3.1 0 0 1-.7.9.8.8 0 0 1-.8.3h-5.3c-.2 0-.5-.5-1-.8l-1.5-.9-1.5-.7c-.6-.4-.9-.9-1.2-.9h-6.2a5.2 5.2 0 0 1 .6-3 4.9 4.9 0 0 1 1.7-1.5 5.8 5.8 0 0 1 2.1-.7l2.2-.3a5.9 5.9 0 0 0 1.6-.7 1.4 1.4 0 0 0 .7-1.3.8.8 0 0 0-.1-.4v-.3a17.8 17.8 0 0 1-.8-1.8l-1.3-2.4a21.3 21.3 0 0 0-1.6-2.5 7.1 7.1 0 0 0-1.5-1.8l-1.3-.8-1.9-1-1.8-1a2.2 2.2 0 0 1-.9-1.1 17.5 17.5 0 0 1-1-3 17.3 17.3 0 0 0-1.1-3.2 6.9 6.9 0 0 0-1.7-2.6 4 4 0 0 0-2.9-1.1 25.5 25.5 0 0 0-6.1.8 28.3 28.3 0 0 0-5.7 2.3 22 22 0 0 0-5.1 3.5 21.6 21.6 0 0 0-3.9 4.6l-.4.2h-.1c-.1 0-.2 0-.2-.1l-.2-.4c0-.1-.1-.4-.1-.6l-.2-.6a.4.4 0 0 0-.1-.3h-.3a1.6 1.6 0 0 0-1.1.5l-.9 1.1-.8 1.4-.9 1a5 5 0 0 1-.6-1.7 7.6 7.6 0 0 1-.1-1.6 9.2 9.2 0 0 1 .4-2.9l.9-2.9a12.5 12.5 0 0 0 .9-2.5 15.9 15.9 0 0 0 .4-2.8h-4.9c0-1.7.2-1.8.7-2.4a6.1 6.1 0 0 1 1.6-1.6 6.4 6.4 0 0 1 2.1-.9l2.2-.3a15.1 15.1 0 0 1 3 .2l3 .5 2.9.4a13.7 13.7 0 0 0 2.9.2h2.3a2.6 2.6 0 0 0-1.7-1.3l-2.5-.5-2.7-.2c-.9 0-1.6.2-2.2-.2l-4-2.2h-.2a11.4 11.4 0 0 0-3.2 0 16.7 16.7 0 0 1-3.2.2 7.3 7.3 0 0 1-3-.7L89 145l-2.6-1.4a5.5 5.5 0 0 0-2.9-.6v6.1l1.6-.2 1-.3.9-.5.9-.7h.6v2.6l2-.6c0 .1.2.2.2.5s.2.4.2.5a5.6 5.6 0 0 1-1.4 3.9 19 19 0 0 1-3.3 2.9 26.4 26.4 0 0 0-4.6-1.3l-4.8-.6v-7.9l-1.8.6a9.3 9.3 0 0 0-2 1 5.2 5.2 0 0 0-1.9 1.2c-.5.4-1 .8-1 1.1v7a9.6 9.6 0 0 0 3-.3l1.9-.6 1.2-.6a2.4 2.4 0 0 1 1.2-.3h.4l.3.7c.1.4.3.8.4 1.3a6.5 6.5 0 0 1 .4 1.3 5.1 5.1 0 0 1 .2.9 4.8 4.8 0 0 1-.4 2 8.7 8.7 0 0 1-1.1 1.8 4.7 4.7 0 0 1-1.5 1.3 3.5 3.5 0 0 1-1.9.6h-1l-3-.5-3.7-.7a10.8 10.8 0 0 1-3.3-1.3 2.6 2.6 0 0 1-1.4-2.1V150l.9-.8 1.9-1.6 2.4-2.2 2.4-2.5a31.6 31.6 0 0 0 1.8-2.7 5.4 5.4 0 0 0 .7-2.6 3.8 3.8 0 0 0-1.2-2.8 9.5 9.5 0 0 0-2.8-2 24.1 24.1 0 0 0-3.3-1.5l-2.5-.9-1.3-9.2q-.3-1.2-.6-2.7a11.1 11.1 0 0 0-1.2-2.7 6.2 6.2 0 0 0-1.7-2.2 4.4 4.4 0 0 0-2.7-.9 13.8 13.8 0 0 0-3.7.5 13 13 0 0 0-3.2 1.5l-1.7 1-2.5 1.5-3 1.8-3 1.8c-1 .5-1.8 1.2-2.6 1.6s-1.3 1.2-1.6 1.2h-1l-1.8-.3a7.8 7.8 0 0 1-2.1-.4 2.7 2.7 0 0 1-1.3-.7c-.5-.3-.4-.8-.4-1.4v-1.9c0-.6-.2-.9.1-.9h1.5v-.5c.1-.2.1-.5.2-.8s.1-.6.2-.9v-.5l-.8-.8-.9-.5-.7-.7a1.7 1.7 0 0 1-.3-1.2 2.7 2.7 0 0 1 .3-1.2 6.7 6.7 0 0 1 .6-1.2c.3-.3.3-.6.7-.9l.8-.3v.8a4.7 4.7 0 0 0 .6 1.5c.1.5.6.7 1.2.7a1.5 1.5 0 0 0 1.1-.5 4.8 4.8 0 0 0 .9-1.1 8.7 8.7 0 0 0 .7-1.7c.1-.4.2.3.2-1.3H20.8c-.2 0-.5-.3-.8-.5a10.5 10.5 0 0 1-1.1-.7 3.6 3.6 0 0 1-.9-.8 1.3 1.3 0 0 1-.4-1 4 4 0 0 1 1.1-3.2 8.3 8.3 0 0 1 2.6-1.9l3.2-1a17.1 17.1 0 0 0 2.9-.8l2.2-.9 3.4-1.6 3.3-1.6a14.1 14.1 0 0 1 2.2-1.1h13.7a7.1 7.1 0 0 1 3.9 1 13.1 13.1 0 0 1 3.2 2.6 20.4 20.4 0 0 1 2.5 3.3l2.3 3.3a15.1 15.1 0 0 0 2.3 2.6 3.6 3.6 0 0 0 2.5 1c.4 0 .7-.1.8-.4s.4-.4.9-.4l1.5.3 1.5.7 1.5.7a3.2 3.2 0 0 0 1.6.4l4.2-.2 4.1-.5 4.1-.5 4.2-.2a57.4 57.4 0 0 1 7.3.4 39.9 39.9 0 0 1 7.3 1.6 41.2 41.2 0 0 1 5.1 2l5.1 2.2a46.8 46.8 0 0 0 5.3 1.7 20 20 0 0 0 5.4.7h2.6l13-2.7c4.3-.9 8.6-1.7 12.9-2.3s8.7-1.2 13-1.6 8.8-.5 13.2-.5h8.9c1.9.1 3.6.7 5.1.9l36.7 7.3h11.7c-.8 0-1.8 1-3.1 1.4a27.5 27.5 0 0 1-4.1.2z"/></symbol><symbol id="brachiosaurus" viewBox="0 0 256 256"><path d="M58.2 167a37.9 37.9 0 0 0-7.7.8v.2c0 .3.2.6.8 1a12.3 12.3 0 0 0 2 1l2.6 1 2.9.8 2.4.6 1.4.3h2.2a11.9 11.9 0 0 0 2.6-.5l2.3-.8a4.2 4.2 0 0 0 1.7-1.5 28.5 28.5 0 0 0-6.4-2.2 30.8 30.8 0 0 0-6.8-.7z"/><path d="M127.7-.3a128 128 0 1 0 128 128 128 128 0 0 0-128-128zm83.4 70.6v.3a3.7 3.7 0 0 1-.1 1.4 15.2 15.2 0 0 1-.3 2.1q-.1 1.2-.3 2.1c-.2.7-.2 1.1-.3 1.4l-.9 1.8-.6 2-.6 2c-.2.7-.5 1.4-.7 2l-1.7 3.1a14.3 14.3 0 0 0-1.6 3l-20.1 27.9a1.6 1.6 0 0 1-.3.6l-.2.3-.4.3-.4.5-1.6 2.2-2.1 2.9-2.2 3.3c-.7 1.1-1.4 2.2-2 3.3a19.4 19.4 0 0 0-1.4 3 5.6 5.6 0 0 0-.5 2.3c0 .3-.3.5-.2.7s.1.5.1.7c-.1 0-.2.1-.2.3a.6.6 0 0 0 .2.5v10.2a2 2 0 0 1-.2 1c-.2.4-.2.7-.4 1.2s-.5.8-.6 1.2-.4.8-.4 1.1v1.7a.4.4 0 0 1-.1.4l-.3.8a6 6 0 0 1-.8.8c-.1.3-.5.4-.5.4v.4c0 .1.7.3.8.5s.9.3.9.4v2.8c0 1.2-.5 2.4-.6 3.6s-.6 2.3-.8 3.5-.5 2.3-.7 3.5a21.9 21.9 0 0 0-.3 3.6q0 3.1.3 6.3a42.3 42.3 0 0 0 1.1 6.2 28.6 28.6 0 0 0 2.1 5.8 25.6 25.6 0 0 0 3.5 5.3l-1.3.8-1.7.7-1.7.5h-2l-1-.2-1.2-.3-1-.2-.7-.2-.8-.2-.6-.5a.9.9 0 0 1-.3-.7c.1-1.4.1-2.7.1-4.1l-.3-4.3c-.2-1.5-.3-2.9-.5-4.3l-.6-4.1-.2-.7a.8.8 0 0 0-.2-.6c.1-1.1.1-2.3.1-3.6s0-2.7-.1-4.1a25.7 25.7 0 0 0-.6-4 11.6 11.6 0 0 0-1.4-3.4 2.8 2.8 0 0 0-1.5 1.8 17.3 17.3 0 0 0-.8 2.7c-.2 1-.2 2-.4 2.9a15.3 15.3 0 0 0-.9 2.4v3.8a17.7 17.7 0 0 0 0 2.3v1.5c0 2.8-.3 5.6-.1 8.3s.2 5.5.5 8.3l.4.3.9.6.8.7a1.3 1.3 0 0 1 .3.7c0 .2-.3.5-.8.8l-1.9.8-2 .9-1.3.4h-.2l-4.8-2.6a.6.6 0 0 1-.2-.5v-.6a29.9 29.9 0 0 1 0-3 15.3 15.3 0 0 0 .1-3.1 25.3 25.3 0 0 0-.3-3.8c-.1-1.2-.4-2.5-.6-3.7l-.6-3.8c-.1-1.3-.2-2.6-.2-3.9s0-2.4.1-3.4a27 27 0 0 1 .4-2.8c.1-.9.3-1.8.5-2.8s.4-2 .7-3.2a2 2 0 0 0-.1-.7 2.8 2.8 0 0 1-.1-.8 6.3 6.3 0 0 0-1.9.3l-1.9.5-1.9.6-1.9.5-1.4.2h-1.1c-.3.1-.6-.1-1-.1h-2.9a46.4 46.4 0 0 1-5.3-.1h-7.7a4.3 4.3 0 0 0-2.4.8 46.9 46.9 0 0 1 0 5.3c0 1.7-.1 3.4-.1 5.1l-.3 5.1c0 1.8-.1 3.5-.1 5.3v1a7.5 7.5 0 0 0 0 1.5v2.6c0 .5.6 1.1 1.1 1.7s.9 1.1 1.4 1.7a18.8 18.8 0 0 1 1.2 1.8 2.9 2.9 0 0 1 .5 1.8v.4a11.2 11.2 0 0 1-4.1.4c.1.4 0 .7-.2.8h-2.8a7.8 7.8 0 0 1-2.2-.3 4.6 4.6 0 0 1-1.9-.8 2.4 2.4 0 0 1-.7-1.9 5.7 5.7 0 0 1 .1-1.3l.3-1.3a6.1 6.1 0 0 0 .3-1.3 6.8 6.8 0 0 0 .2-1.4 24.7 24.7 0 0 0-.3-3.9c-.2-1.2-.4-2.4-.7-3.6s-.5-2.7-.8-3.9a27 27 0 0 1-.7-4h-.4c-.3 0-.4.8-.6 1s-.2.5-.4.7l-.3.5a18.8 18.8 0 0 1-1.6 2.3 17.6 17.6 0 0 0-1.4 2.3 12.8 12.8 0 0 0-1.1 2.4 8.4 8.4 0 0 0-.4 2.7 5.1 5.1 0 0 0 .3 1.7l.7 1.5.8 1.2.3.5a.9.9 0 0 1-.4.8l-1 .4a7 7 0 0 1-1.4.3h-4.3l-1.1-.4a2.2 2.2 0 0 1-.7-.9 9.1 9.1 0 0 1-.6-1.6 7.5 7.5 0 0 0-.5-1.6 5.1 5.1 0 0 1-.3-1.7 4.2 4.2 0 0 1 .4-1.5 14 14 0 0 1 1-1.6l1.1-1.6a10.9 10.9 0 0 0 .8-1.5c.8-1.9 1.7-3.9 2.5-5.9l2.4-5.9a5.6 5.6 0 0 1 .5-.8l.5-.7a2.2 2.2 0 0 0 .5-.8 1.9 1.9 0 0 0 .2-.8c0-.4-.2-.6-.4-.6h-1.3l-9 2.4a3.2 3.2 0 0 1-1.3.6l-1.8.4-1.6.5a1.2 1.2 0 0 0-.7 1.1 1.2 1.2 0 0 0 .3.9c.1.3.4.5.6.7l.9.5.7.6-.4.5-1.3-.9-1.4-.8a4.7 4.7 0 0 0-1.5-.6 4 4 0 0 0-1.5-.3 13.2 13.2 0 0 0-3.9.6l-4 1.1-4.1 1.1a15.2 15.2 0 0 1-4.2.6l-3.5-.4-4.9-1.2c-1.8-.5-3.6-1-5.5-1.7a46.7 46.7 0 0 1-5-2.3 13.6 13.6 0 0 1-3.7-2.7 4.3 4.3 0 0 1-1.5-3 4.5 4.5 0 0 1 1.2-3.3 6.1 6.1 0 0 1 2.7-1.6c1.1-.4 2.3-.1 3.5-.2s2.4.4 3.4.4h4c.2 0 .6-.4 1.3-.3a23.2 23.2 0 0 1 2.4.2 21.3 21.3 0 0 1 2.5.3l2 .2a6.6 6.6 0 0 1 2 .6l1.8.8 1.8.8a6.4 6.4 0 0 0 2 .3 8.8 8.8 0 0 0 4-1 47.8 47.8 0 0 0 4.2-2.6 41.6 41.6 0 0 0 3.9-3.2l3.3-2.7a7.6 7.6 0 0 1 1.9-1.2l1.8-1.1 1.8-1.3a12.9 12.9 0 0 0 1.5-1.7c1-1.5 1.8-3 2.6-4.5a33.5 33.5 0 0 1 2.7-4.5l1.4-1.4 1.5-1 1.7-.8 1.6-1 3.6-2.6 3.5-2.9 3.4-3.1 3.4-2.9a24.6 24.6 0 0 1 3.9-2.2l3.9-1.8 2.5-1.3 2.5-1.4 2.6-1.1a13.8 13.8 0 0 1 2.7-.8l22.5-3.2a12.7 12.7 0 0 0 3.6-1.2 17.2 17.2 0 0 0 3.3-2.2 28.9 28.9 0 0 0 3.2-2.9q1.6-1.6 3-3.3l2.7-3.2 2.3-2.7 7.8-9.1.3-.2.5-.6.6-.5.2-.3 2.1-3.3h.2l.4-.3.4-.2.2-.2.4-.4.4-.4 1.3-1.7a24.3 24.3 0 0 1 1.4-2l1.3-2a9.5 9.5 0 0 0 .9-1.7 9.5 9.5 0 0 0 .9-2.1c.2-.7.5-1.4.7-2.1a19.5 19.5 0 0 1 .8-2.2c.2-.7 1-1.5 1-2.2v-6.3a5.3 5.3 0 0 0-1.1-3.1 11.2 11.2 0 0 0-2.7-2.6 10.6 10.6 0 0 0-3.3-1.8 8.5 8.5 0 0 0-3.3-.7 22 22 0 0 0-5.8.7 12.2 12.2 0 0 0-5.2 2.6l-1.4 1.5-1.7 1.8-1.7 2.1a16.2 16.2 0 0 1-1.9 1.8 6.8 6.8 0 0 1-1.8 1.3 3.2 3.2 0 0 1-1.8.6 1.7 1.7 0 0 1-1.7-1.7v-.4a2 2 0 0 0 .1-.5c.1-.2.1-.5.2-.8s.1-.5.1-.7a1.3 1.3 0 0 0 .1-.5 8.8 8.8 0 0 0-.2-1.7l-.6-1.4a3.4 3.4 0 0 1-.6-1.2 2.4 2.4 0 0 1-.3-1.2 1.2 1.2 0 0 0 .9-.3l.4-.6c.1-.3.3-.5.4-.8l.8-.6h2.9a1.1 1.1 0 0 0 .9-.4c.2-.3.5-.4.8-.7h.4l.2.4.2.4a.4.4 0 0 1 .4-.4l.6-.4 1.1-.6 1.4-.8 1.4-.8 1.1-.7.5-.4 2.1-1.3 1.8-.6 2-.2h6.5a3.4 3.4 0 0 0 1.5.6l1.5.3 1.6.3 1.5.5a15.4 15.4 0 0 1 7.8 7.3 17.2 17.2 0 0 1 1.8 5.1 25 25 0 0 1 .4 5.5v.7a2.2 2.2 0 0 1 0 .8z"/></symbol><symbol id="micropachycephalosaurus" viewBox="0 0 256 256"><path d="M132.2 151.3c-.3 0-.4.2-.4.6h-.1a.5.5 0 0 0-.5.5c0 .4.2.6.5.6s.4-.2.4-.6h.1c.4 0 .5-.2.5-.5s-.1-.6-.5-.6zm1.5-.8a2.4 2.4 0 0 0-.9.8h.3l1.2-.3a3 3 0 0 0 .8-.8h-.3a2.3 2.3 0 0 0-1.1.3zm3.1-2.6c-.3 0-.4.2-.4.6h-.2c-.3 0-.4.1-.4.5h-.1c-.3 0-.5.2-.5.6s.2.6.5.6.4-.2.4-.6h.1c.3 0 .5-.2.5-.6h.1a.5.5 0 0 0 .5-.5c0-.4-.2-.6-.5-.6zm23.4-5.9l-1.3 1.4a1.7 1.7 0 0 0 .8 1 2 2 0 0 0 1.1.2 2.1 2.1 0 0 0 1.5-.5 4 4 0 0 0 1-1.2 7.1 7.1 0 0 0 .8-1.5c.2-.5.4-1.2.5-1.2h-3.5c-.2 0-.5 1.1-.9 1.8z"/><path d="M127.7 0a128 128 0 1 0 128 128 128 128 0 0 0-128-128zm95.9 75.9a3.3 3.3 0 0 1-1.5.4h-3.8l-5.2 1.2a21.6 21.6 0 0 0-3.7 1.6 13.6 13.6 0 0 0-2.5 2.2 16.9 16.9 0 0 0-1.7 3 17.6 17.6 0 0 0-1.5 3.9c-.5 1.5-1.1 3.2-1.7 5.1l-1.2 3.7c-.4 1-.8 2.1-1.3 3.2s-.9 2-1.4 3.1l-1.8 3.3a29 29 0 0 1-2.7 4.1c-.9 1.2-1.9 2.5-3 3.7l-3.1 3.6a39.3 39.3 0 0 0-3.1 3.8 11.6 11.6 0 0 0-1.4 2.7 20 20 0 0 1-1 2.6 9.8 9.8 0 0 1-1.3 2.2 5.7 5.7 0 0 1-2.5 1.6l-1.4.6-2 .6-2.1.7-1.3.4a2.8 2.8 0 0 1 .1 2 2 2 0 0 1-.9.9 2.7 2.7 0 0 1-1.2.6 2.2 2.2 0 0 0-.9 1l-2.2 6.8a3.3 3.3 0 0 1-1.1 1.5 5.1 5.1 0 0 1-1.8.9 12.3 12.3 0 0 1-2 .2l-1.9-.2h-.8c-.5 0-.9.2-1.2.1a1.1 1.1 0 0 1-.4-.9c0-.1.1-.2.1-.4l.3-.2.2-.3a.6.6 0 0 0 .1-.4v-.2a18.7 18.7 0 0 0-3.5 1.7l-3.4 2-3.3 2.2-3.4 2-.9.5-1.2.5-1 .8a2.1 2.1 0 0 0-.4 1.1v.3a.3.3 0 0 1 .1.2l1.8 1.7 1.9 1.7 2.1 1.6a12 12 0 0 0 2.1 1.3l1.8.7 2 .5 1.9.7a7 7 0 0 1 1.7.9 8.6 8.6 0 0 1 1.3 1.4l1.1 1.5 1.2 1.5a8.6 8.6 0 0 0 1.4 1.3l1.7.6 2.1.6a7.7 7.7 0 0 1 1.8 1 2.3 2.3 0 0 1 .8 1.8v.5l-5.7 1.1-1.1.4a2.1 2.1 0 0 1-1.2.3h-.5l-1.2-.6-1.7-1-1.7-1-1.1-.8-.2-.2-.3-.5-.3-.6-.3-.4-2.3-4.6-1.1-.4-1.8-.8-2.2-.9-2.1-1-1.8-.8a4.4 4.4 0 0 1-1.2-.6 16.4 16.4 0 0 1-2.8-1.6 17.1 17.1 0 0 1-2.6-2.1 15.6 15.6 0 0 1-2-2.7 9.4 9.4 0 0 1-1.1-3.2l-.5.2-.6.4-.9.6-1.7 1.2-2.2 1.4-2.1 1.4-1.8 1.1-.9.5-6.1 3.6a22.2 22.2 0 0 0-4.5 3.4 18.2 18.2 0 0 0-3.7 4.5c-.9 1.7-.7 3.9-2.4 6.6v1.6a10.5 10.5 0 0 0 1.2 4.5 8 8 0 0 0 2.1 2.6 8.7 8.7 0 0 0 2.7 1.4l2.6 1a4.4 4.4 0 0 1 1.9 1 4.5 4.5 0 0 1 .9 2h-13.6a1 1 0 0 0-.1-.4c-.1-.2-.3-.1-.4-.2h-.5l-.6-.4a3.2 3.2 0 0 1-1.3-1.5 14.2 14.2 0 0 1-.5-2.2c0-.8.2-1.6.2-2.3a21.1 21.1 0 0 0 .3-2.1v-1.5a10.5 10.5 0 0 1 .3-1.8c.2-.8.3-1.7.6-2.7a20.3 20.3 0 0 1 .8-3.1c.3-1.2.5-2.2.8-3.2s.4-1.9.6-2.7l.5-1.8.6-2 1-1.9a15.4 15.4 0 0 0 4.6-2.6 19.9 19.9 0 0 0 3.2-3.3l3-3.5a17 17 0 0 1 3.4-3.1l1.5-.7 2-.8 2.4-1a10.3 10.3 0 0 0 2.1-1.1 7.5 7.5 0 0 0 1.6-1.3 2.5 2.5 0 0 0 .6-1.6v-1.3a1.8 1.8 0 0 0-.6-1.3l-.8-.2-1.2-.6-1.2-.5-.8-.4a9.4 9.4 0 0 1-2-1.2L119 136c-.9-.7-1.7-1-2.5-1.6a3 3 0 0 0-1.8-.5h-7.9c-6 0-12-.1-17.8.1s-11.8.2-17.8.2c-4.4 0-8.8-.2-13-.4a102.3 102.3 0 0 1-12.4-1.4 96.9 96.9 0 0 1-12.1-2.9 72.3 72.3 0 0 1-11.9-5.1l-1.4-.7-1.7-1.1a5.3 5.3 0 0 1-1.3-1.3 2.7 2.7 0 0 1-.5-1.5 5.9 5.9 0 0 1 2.1.4 12.5 12.5 0 0 1 2.5.9l2.2 1 1.5.6a42.4 42.4 0 0 0 4.7 1.7l5.1 1.4a30.6 30.6 0 0 0 5.1 1 28.5 28.5 0 0 0 4.9.4h26.7l2.6-.4 3.4-.5 3.7-.6 3.4-.6 2.7-.6 6.9-1.4c2.5-.4 5-1 7.5-1.6s4.9-1.3 7.3-2.1a56.9 56.9 0 0 0 6.6-2.8l3.9-1.8a25.4 25.4 0 0 1 3.8-1.6l4-1.4a25.9 25.9 0 0 1 4.2-.9h2.8l1.8-.2a2.3 2.3 0 0 0 1.1-.2l1.9-.3 3.3-.7 4.1-.9 4.1-1c1.3-.2 2.4-.9 3.4-1.1s1.5-.7 1.9-.7h6.6c2.7 0 5.4.5 7.9.7s5.3.5 7.9.5a10.1 10.1 0 0 0 5.1-1.2 19.2 19.2 0 0 0 4.6-3.6 33.3 33.3 0 0 0 3.9-5 53 53 0 0 0 3.3-5.7c.9-1.9 1.8-3.8 2.5-5.6s1.3-3.4 1.8-4.8.8-2.4 1.2-3.5a24.2 24.2 0 0 1 1-3.2 12.3 12.3 0 0 1 1.2-2.6 5.8 5.8 0 0 1 1.8-2 6.8 6.8 0 0 1 2.6-1.6 12.7 12.7 0 0 1 3.8-.8h3.1c.8 1.7 1.8.9 3 1.3l3.6 1.5a22 22 0 0 1 3 1.9 2.8 2.8 0 0 1 1.2 2.2 2 2 0 0 1-.4 1.4 3.6 3.6 0 0 1-1.2.2z"/></symbol></svg>